<svg width="563" height="179" viewBox="0 0 563 179" fill="none" xmlns="http://www.w3.org/2000/svg">
<path d="M40.8779 56.7635C40.8779 56.7635 65.2125 30.7468 124.823 41.4928C171.945 49.9876 133.25 64.6086 114.969 70.3618C109.665 72.0302 104.171 73.0189 98.6178 73.3039C77.9942 74.3653 26.1197 75.3142 40.8779 56.7635Z" fill="#714B4F"/>
<path d="M100.532 79.2397C100.532 79.2397 49.7841 60.0223 49.1434 60.302C48.5028 60.5817 37.7199 56.721 36.7715 52.9405C35.8231 49.1599 35.6534 47.518 38.6179 48.1304C41.5824 48.7427 151.399 37.0229 151.399 37.0229C151.399 37.0229 156.687 38.5273 152.197 42.5852C147.706 46.6431 100.532 79.2397 100.532 79.2397Z" fill="#FAFF02"/>
<path d="M96.51 62.0207C112.137 62.0207 124.806 53.6645 124.806 43.3566C124.806 33.0486 112.137 24.6924 96.51 24.6924C80.8825 24.6924 68.2139 33.0486 68.2139 43.3566C68.2139 53.6645 80.8825 62.0207 96.51 62.0207Z" fill="#FF000A"/>
<path d="M71.1998 66.0334C86.8273 66.0334 99.4959 57.6772 99.4959 47.3692C99.4959 37.0613 86.8273 28.7051 71.1998 28.7051C55.5723 28.7051 42.9037 37.0613 42.9037 47.3692C42.9037 57.6772 55.5723 66.0334 71.1998 66.0334Z" fill="#FA030D"/>
<path d="M56.1762 90.7462C69.1666 91.8449 83.9596 92.4311 99.3657 92.4311C113.465 92.4311 127.049 91.9408 139.206 91.0165C139.203 91.1154 139.2 91.2143 139.192 91.3133C138.87 97.056 134.322 102.504 126.519 106.493C118.717 110.482 108.28 112.696 97.4393 112.661C86.5982 112.626 76.2131 110.345 68.5035 106.305C60.794 102.266 56.3717 96.7889 56.1818 91.0445C56.179 90.9441 56.1762 90.8452 56.1762 90.7462Z" fill="#F72585"/>
<g opacity="0.1">
<path opacity="0.1" d="M104.188 2.26607C97.8012 1.40334 91.3041 1.89231 85.118 3.70127C78.9319 5.51024 73.195 8.59884 68.279 12.7669C63.363 16.9349 59.3776 22.0894 56.5812 27.8963C53.7847 33.7032 52.2396 40.0329 52.046 46.4751C52.0367 46.6819 52.0337 46.8887 52.0306 47.0955C56.0315 46.5215 60.1746 46.0296 64.428 45.6188C64.9482 34.8863 69.2094 24.6746 76.4721 16.7557C83.7349 8.83678 93.5408 3.71038 104.188 2.26607Z" fill="white"/>
</g>
<path d="M164.263 51.7387C157.639 49.943 150.92 48.5169 144.138 47.4668C133.022 45.7442 121.815 44.6673 110.575 44.2413C105.892 44.0499 101.123 43.9512 96.3021 43.9512C92.4809 43.9512 88.6904 44.0129 84.9526 44.1364C73.9878 44.4603 63.0489 45.3846 52.1852 46.9051C44.1433 48.0124 36.1794 49.6268 28.3412 51.7387C10.0654 56.7914 0 63.5635 0 70.8046C0 78.0458 10.0654 84.8178 28.3412 89.8706C41.1938 93.4264 57.0404 95.8493 74.307 96.9605C81.4339 97.4235 88.8017 97.6581 96.3021 97.6581C103.827 97.6581 111.22 97.4204 118.368 96.9574C134.082 95.9419 148.62 93.84 160.787 90.7842C160.852 90.7657 160.914 90.7503 160.979 90.7348C161.8 90.5311 162.608 90.3181 163.408 90.1052C163.695 90.0249 163.979 89.9478 164.263 89.8706C164.279 89.8641 164.295 89.8589 164.312 89.8552C164.584 89.7811 164.852 89.7039 165.121 89.6298C165.658 89.4755 166.189 89.3243 166.711 89.1669C166.735 89.1607 166.757 89.1545 166.779 89.1483C167.232 89.0125 167.677 88.8767 168.118 88.7409C168.479 88.6267 168.837 88.5156 169.192 88.4014C169.452 88.318 169.708 88.2347 169.961 88.1514C170.146 88.0896 170.328 88.031 170.507 87.9692C170.751 87.889 170.995 87.8057 171.236 87.7223C171.337 87.6884 171.439 87.6544 171.538 87.6174C171.77 87.5402 171.995 87.46 172.22 87.3797C172.464 87.2933 172.708 87.2038 172.949 87.1173C173.149 87.0463 173.35 86.9723 173.547 86.8982C173.714 86.8334 173.878 86.7716 174.044 86.7099C174.498 86.5401 174.943 86.3642 175.381 86.1914C175.6 86.1018 175.819 86.0154 176.035 85.9259C176.248 85.8395 176.464 85.75 176.674 85.6605C177.02 85.5154 177.359 85.3703 177.693 85.2253C177.853 85.1512 178.017 85.0802 178.174 85.0123C178.295 84.9567 178.412 84.9043 178.532 84.8487C178.619 84.8117 178.705 84.7715 178.789 84.7314C179.1 84.5894 179.409 84.4444 179.711 84.2993C180.872 83.7437 181.955 83.1758 182.962 82.5955C189.274 78.9811 192.604 74.9716 192.604 70.8046C192.604 63.5635 182.539 56.7914 164.263 51.7387ZM164.096 89.278C151.228 92.8368 135.338 95.2598 118.026 96.3617C110.985 96.8093 103.707 97.0408 96.3021 97.0408C88.922 97.0408 81.6684 96.8124 74.6496 96.3648C57.309 95.266 41.3944 92.843 28.5078 89.278C10.5222 84.3024 0.617321 77.7433 0.617321 70.8046C0.618326 70.1915 0.695066 69.5809 0.845802 68.9866C2.41985 62.727 12.1026 56.8686 28.5078 52.3313C36.2869 50.2359 44.1897 48.6308 52.1698 47.5255C63.0989 45.9964 74.1038 45.069 85.1347 44.7475C88.8141 44.6271 92.5365 44.5675 96.3021 44.5685C101.059 44.5685 105.763 44.6642 110.386 44.8494C121.692 45.2715 132.964 46.3537 144.144 48.0903C150.868 49.1357 157.529 50.5515 164.096 52.3313C180.499 56.8686 190.178 62.7239 191.755 68.9804C191.909 69.5764 191.986 70.1893 191.987 70.8046C191.987 77.7433 182.082 84.3024 164.096 89.278Z" fill="#F72585"/>
<path d="M192.428 71.086C192.428 75.2097 189.03 79.1111 182.962 82.5959C181.952 83.1762 180.866 83.7441 179.711 84.2997C179.409 84.4448 179.1 84.5899 178.789 84.7318C178.705 84.772 178.619 84.8121 178.532 84.8491C178.412 84.9047 178.295 84.9572 178.174 85.0127C178.017 85.0806 177.853 85.1516 177.693 85.2257C177.359 85.3708 177.02 85.5158 176.674 85.6609C176.464 85.7504 176.248 85.8399 176.035 85.9263C175.819 86.0159 175.6 86.1023 175.381 86.1918C174.943 86.3646 174.498 86.5406 174.044 86.7103C173.878 86.7721 173.714 86.8338 173.547 86.8986C173.35 86.9727 173.149 87.0468 172.949 87.1178C172.708 87.2042 172.464 87.2937 172.22 87.3801C171.995 87.4604 171.77 87.5406 171.538 87.6178C171.439 87.6549 171.338 87.6888 171.236 87.7227C170.995 87.8061 170.751 87.8894 170.507 87.9697C170.328 88.0314 170.146 88.0901 169.961 88.1518C169.708 88.2351 169.451 88.3185 169.192 88.4018C168.837 88.516 168.479 88.6271 168.118 88.7413C167.677 88.8771 167.232 89.013 166.779 89.1488C166.757 89.1549 166.735 89.1611 166.711 89.1673C166.189 89.3247 165.658 89.4759 165.121 89.6303C164.852 89.7044 164.584 89.7815 164.312 89.8556C164.295 89.8593 164.279 89.8645 164.263 89.871C163.979 89.9482 163.695 90.0254 163.408 90.1056C162.612 90.3155 161.8 90.5285 160.979 90.7353C160.914 90.7507 160.852 90.7661 160.787 90.7847C148.95 93.7416 134.428 95.8961 118.356 96.9363C111.315 97.39 103.975 97.6307 96.4349 97.6307C88.8264 97.6307 81.4246 97.3869 74.3286 96.9239C31.9679 94.1614 0.441467 83.6423 0.441467 71.0859C0.444803 70.3219 0.561261 69.5626 0.787053 68.8327C0.805591 68.8852 0.824126 68.9346 0.845831 68.9871C5.25027 80.5557 36.5085 89.905 77.0664 92.186C83.2797 92.5378 89.7154 92.72 96.3021 92.72C102.917 92.72 109.377 92.5348 115.615 92.1829C156.139 89.8926 187.366 80.5402 191.755 68.9809C191.83 68.7957 191.894 68.6105 191.95 68.4253C192.263 69.2776 192.425 70.178 192.428 71.086Z" fill="#F72585"/>
<path d="M28.2947 67.7631C23.1578 67.7631 17.6982 66.6579 17.6982 64.6096C17.6982 62.5612 23.1578 61.4561 28.2947 61.4561C33.4316 61.4561 38.8912 62.5612 38.8912 64.6096C38.8912 66.6579 33.4317 67.7631 28.2947 67.7631ZM28.2947 62.0734C22.4138 62.0734 18.3155 63.4101 18.3155 64.6096C18.3155 65.8091 22.4138 67.1458 28.2947 67.1458C34.1756 67.1458 38.2739 65.8091 38.2739 64.6096C38.2739 63.4101 34.1756 62.0734 28.2947 62.0734Z" fill="#F72585"/>
<path d="M50.2095 82.2704C45.0726 82.2704 39.613 81.1652 39.613 79.1169C39.613 77.0686 45.0726 75.9634 50.2095 75.9634C55.3465 75.9634 60.8061 77.0686 60.8061 79.1169C60.8061 81.1652 55.3465 82.2704 50.2095 82.2704ZM50.2095 76.5807C44.3287 76.5807 40.2304 77.9174 40.2304 79.1169C40.2304 80.3164 44.3287 81.6531 50.2095 81.6531C56.0904 81.6531 60.1888 80.3164 60.1888 79.1169C60.1888 77.9174 56.0904 76.5807 50.2095 76.5807Z" fill="#F72585"/>
<path d="M164.105 67.7631C158.968 67.7631 153.509 66.6579 153.509 64.6096C153.509 62.5612 158.968 61.4561 164.105 61.4561C169.242 61.4561 174.702 62.5612 174.702 64.6096C174.702 66.6579 169.242 67.7631 164.105 67.7631ZM164.105 62.0734C158.224 62.0734 154.126 63.4101 154.126 64.6096C154.126 65.8091 158.224 67.1458 164.105 67.1458C169.986 67.1458 174.085 65.8091 174.085 64.6096C174.085 63.4101 169.986 62.0734 164.105 62.0734Z" fill="#F72585"/>
<path d="M142.19 82.2704C137.053 82.2704 131.594 81.1652 131.594 79.1169C131.594 77.0686 137.053 75.9634 142.19 75.9634C147.327 75.9634 152.787 77.0686 152.787 79.1169C152.787 81.1652 147.327 82.2704 142.19 82.2704ZM142.19 76.5807C136.309 76.5807 132.211 77.9174 132.211 79.1169C132.211 80.3164 136.309 81.6531 142.19 81.6531C148.071 81.6531 152.17 80.3164 152.17 79.1169C152.17 77.9174 148.071 76.5807 142.19 76.5807Z" fill="#F72585"/>
<path d="M96.2 89.0605C91.0631 89.0605 85.6035 87.9553 85.6035 85.9069C85.6035 83.8586 91.0631 82.7534 96.2 82.7534C101.337 82.7534 106.797 83.8586 106.797 85.9069C106.797 87.9553 101.337 89.0605 96.2 89.0605ZM96.2 83.3707C90.3191 83.3707 86.2208 84.7074 86.2208 85.9069C86.2208 87.1065 90.3191 88.4431 96.2 88.4431C102.081 88.4431 106.179 87.1065 106.179 85.9069C106.179 84.7074 102.081 83.3707 96.2 83.3707Z" fill="#F72585"/>
<path d="M75.6925 142.347C75.5318 142.347 75.3777 142.283 75.2641 142.169C75.1505 142.055 75.0866 141.901 75.0866 141.741V105.991C75.0866 105.83 75.1504 105.676 75.2641 105.563C75.3777 105.449 75.5318 105.385 75.6925 105.385C75.8532 105.385 76.0073 105.449 76.121 105.563C76.2346 105.676 76.2985 105.83 76.2985 105.991V141.741C76.2984 141.901 76.2346 142.055 76.121 142.169C76.0073 142.283 75.8532 142.347 75.6925 142.347Z" fill="#F72585"/>
<path d="M66.6038 174.46C66.4431 174.46 66.289 174.397 66.1753 174.283C66.0617 174.169 65.9979 174.015 65.9979 173.854V147.8C65.9979 147.639 66.0617 147.485 66.1753 147.371C66.289 147.258 66.4431 147.194 66.6038 147.194C66.7645 147.194 66.9186 147.258 67.0322 147.371C67.1459 147.485 67.2097 147.639 67.2097 147.8V173.854C67.2097 174.015 67.1459 174.169 67.0322 174.283C66.9186 174.397 66.7645 174.46 66.6038 174.46Z" fill="#F72585"/>
<path d="M89.9317 152.95C89.771 152.95 89.6169 152.886 89.5033 152.773C89.3897 152.659 89.3258 152.505 89.3258 152.344V116.595C89.3258 116.434 89.3896 116.28 89.5033 116.166C89.6169 116.053 89.771 115.989 89.9317 115.989C90.0924 115.989 90.2465 116.053 90.3602 116.166C90.4738 116.28 90.5377 116.434 90.5377 116.595V152.344C90.5376 152.505 90.4738 152.659 90.3602 152.773C90.2465 152.886 90.0924 152.95 89.9317 152.95Z" fill="#F72585"/>
<path d="M81.1458 178.701C80.9851 178.701 80.831 178.637 80.7174 178.524C80.6038 178.41 80.5399 178.256 80.5399 178.095V163.553C80.5399 163.392 80.6037 163.238 80.7174 163.125C80.831 163.011 80.9851 162.947 81.1458 162.947C81.3065 162.947 81.4607 163.011 81.5743 163.125C81.6879 163.238 81.7518 163.392 81.7518 163.553V178.095C81.7518 178.256 81.6879 178.41 81.5743 178.524C81.4607 178.637 81.3065 178.701 81.1458 178.701Z" fill="#F72585"/>
<path d="M100.315 115.869C100.151 115.869 99.994 115.804 99.8782 115.688C99.7624 115.573 99.6974 115.416 99.6974 115.252V100.436C99.6974 100.272 99.7624 100.115 99.8782 99.9997C99.994 99.8839 100.151 99.8188 100.315 99.8188C100.478 99.8188 100.635 99.8839 100.751 99.9997C100.867 100.115 100.932 100.272 100.932 100.436V115.252C100.932 115.416 100.867 115.573 100.751 115.688C100.635 115.804 100.478 115.869 100.315 115.869Z" fill="#F72585"/>
<path d="M63.2711 110.535C63.1104 110.535 62.9563 110.471 62.8427 110.358C62.7291 110.244 62.6652 110.09 62.6652 109.929V95.3872C62.6652 95.2265 62.7291 95.0724 62.8427 94.9587C62.9563 94.8451 63.1104 94.7812 63.2711 94.7812C63.4318 94.7812 63.586 94.8451 63.6996 94.9587C63.8132 95.0724 63.8771 95.2265 63.8771 95.3872V109.929C63.8771 110.09 63.8132 110.244 63.6996 110.358C63.586 110.471 63.4318 110.535 63.2711 110.535Z" fill="#F72585"/>
<path d="M115.986 112.05C115.826 112.05 115.672 111.986 115.558 111.872C115.444 111.759 115.381 111.605 115.38 111.444V96.9018C115.38 96.7411 115.444 96.587 115.558 96.4734C115.672 96.3597 115.826 96.2959 115.986 96.2959C116.147 96.2959 116.301 96.3597 116.415 96.4734C116.528 96.587 116.592 96.7411 116.592 96.9018V111.444C116.592 111.605 116.528 111.759 116.415 111.872C116.301 111.986 116.147 112.05 115.986 112.05Z" fill="#F72585"/>
<path d="M114.775 157.494C114.614 157.494 114.46 157.43 114.346 157.317C114.233 157.203 114.169 157.049 114.169 156.888V139.316C114.169 139.156 114.233 139.002 114.346 138.888C114.46 138.774 114.614 138.71 114.775 138.71C114.935 138.71 115.09 138.774 115.203 138.888C115.317 139.002 115.381 139.156 115.381 139.316V156.888C115.381 157.049 115.317 157.203 115.203 157.317C115.09 157.43 114.935 157.494 114.775 157.494Z" fill="#F72585"/>
<path d="M102.656 172.945C102.496 172.945 102.341 172.881 102.228 172.768C102.114 172.654 102.05 172.5 102.05 172.339V146.285C102.05 146.124 102.114 145.97 102.228 145.856C102.341 145.743 102.496 145.679 102.656 145.679C102.817 145.679 102.971 145.743 103.085 145.856C103.198 145.97 103.262 146.124 103.262 146.285V172.339C103.262 172.5 103.198 172.654 103.085 172.768C102.971 172.881 102.817 172.945 102.656 172.945Z" fill="#F72585"/>
<path d="M105.08 128.41C104.919 128.41 104.765 128.346 104.651 128.233C104.538 128.119 104.474 127.965 104.474 127.804V92.0547C104.474 91.894 104.538 91.7398 104.651 91.6262C104.765 91.5126 104.919 91.4487 105.08 91.4487C105.241 91.4487 105.395 91.5126 105.508 91.6262C105.622 91.7398 105.686 91.894 105.686 92.0547V127.804C105.686 127.965 105.622 128.119 105.508 128.233C105.395 128.346 105.24 128.41 105.08 128.41Z" fill="#F72585"/>
<path d="M54.9458 32.0249C53.963 31.7239 52.7191 31.3352 52.8312 30.7013C52.8908 30.3645 53.3417 30.1018 53.6685 29.8194C54.2983 29.2751 54.4681 28.5084 53.7916 27.9827C53.1151 27.457 51.4856 27.3867 50.8888 27.943C50.5817 28.2292 50.6002 28.5881 50.4417 28.9113C49.9472 29.9196 47.9463 30.3624 46.2465 30.7541C44.5468 31.1458 42.645 31.8747 42.8048 32.9179C42.9791 34.0558 45.6013 35.0653 44.5462 36.0356C44.1637 36.3875 43.3589 36.5838 43.1876 36.9863C43.0671 37.2695 43.3091 37.5575 43.5441 37.8162L45.2139 39.6547C45.8782 40.3862 46.5627 41.1821 46.3402 41.9963C45.8992 43.6103 42.3144 44.2277 39.4731 44.0463C38.4326 43.9799 37.2096 43.889 36.4946 44.326C35.9436 44.6627 35.9445 45.1873 36.1277 45.6362C36.5991 46.7917 38.1071 47.7924 40.0371 48.2304C37.874 48.657 37.0244 50.4547 38.5179 51.4452C37.6633 51.7391 36.7393 51.7655 35.8692 51.5211C35.1305 52.2007 35.5648 53.1334 36.5016 53.7279C37.4384 54.3224 38.7656 54.6569 40.0507 54.9745L38.8481 56.0983C39.7184 56.7776 41.5979 56.5382 42.8653 56.1088C44.1327 55.6795 45.508 55.103 46.9281 55.3276C48.2599 55.5383 49.2672 56.4261 50.6233 56.2741C51.6742 56.1563 52.1743 55.4814 52.5017 54.8988L53.8935 52.4223C55.8747 52.732 57.9579 51.3753 57.1622 50.2933C59.3792 50.5313 61.5615 49.0924 60.8337 47.8725C62.0144 48.7826 62.8457 49.8399 63.2524 50.9486C63.4341 51.444 63.5447 51.9679 64.0397 52.3877C64.3633 52.6283 64.7382 52.7908 65.1351 52.8625C65.5319 52.9343 65.94 52.9133 66.3274 52.8013C65.9231 53.5848 65.5957 54.4988 66.4265 55.1636C67.2573 55.8284 69.6547 55.6398 69.5488 54.8252C70.8158 55.3693 72.2355 55.8807 73.8188 55.9212C75.4021 55.9618 77.1349 55.3596 77.2791 54.4578C79.5105 55.1933 81.8448 55.5688 84.1944 55.5703C84.3942 54.9668 85.79 54.7716 86.8336 54.9191C87.8772 55.0666 88.8452 55.421 89.9202 55.4216C90.9952 55.4222 92.1513 54.7756 91.6009 54.248C93.8646 54.7213 96.1883 54.8385 98.4882 54.5953C100.658 54.3652 102.714 53.8181 104.911 53.7001C107.139 53.5645 109.37 53.9167 111.449 54.7321C112.169 55.0339 113.064 55.4138 113.855 55.177C114.304 55.0428 114.522 54.7528 114.827 54.5216C116.139 53.5267 118.822 53.7175 120.893 54.1086C122.963 54.4998 125.371 54.9707 127.185 54.2794C127.869 54.0185 128.374 53.6154 129.102 53.3964C131.71 52.6119 134.831 54.6221 137.599 54.0437C138.501 53.8553 139.232 53.4047 140.187 53.3491C141.881 53.2505 143 54.3978 144.647 54.6445C146.355 54.9006 148.208 53.8615 147.791 52.8807C149.433 52.9172 151.071 52.6897 152.641 52.207L151.865 50.8117C153.798 50.7806 155.22 49.3958 154.324 48.4167C156.263 48.0477 157.795 47.0548 158.194 45.9099C158.592 44.765 157.841 43.5127 156.297 42.7482C155.386 42.297 154.189 41.9797 153.668 41.3583C153.293 40.9109 153.348 40.3904 153.202 39.9013C152.883 38.8308 151.499 37.8856 149.711 37.5171C148.934 37.357 148.085 37.2962 147.381 37.049C146.678 36.8019 146.171 36.2664 146.576 35.8557C146.791 35.6384 147.205 35.5103 147.472 35.313C148.557 34.5126 146.697 33.4997 145.11 33.0504L148.9 32.9265L149.714 29.2381C148.215 30.4572 144.324 30.2008 143.35 28.8187C144.567 29.218 146.201 28.7074 146.796 27.9809C147.391 27.2544 147.245 26.4095 147.086 25.6125C147.071 25.4145 147.005 25.2238 146.894 25.0589C146.783 24.8941 146.632 24.7607 146.454 24.6718C146.083 24.4952 145.492 24.4215 145.37 24.1545C145.246 23.882 145.726 23.6411 145.797 23.3625C145.934 22.8278 144.704 22.5921 143.873 22.3335C141.914 21.7233 140.965 20.0086 138.735 20.0643C136.523 20.1196 135.904 21.8077 135.903 23.073C135.901 24.3382 135.153 26.0301 132.939 26.0071C132.054 25.9978 131.284 25.6801 130.578 25.3759L124.236 22.6426C123.398 22.253 122.527 21.9407 121.632 21.7095C120.353 21.4112 118.94 21.376 117.559 21.3446L108.689 21.1431C108.237 21.1077 107.782 21.1467 107.343 21.2588C106.877 21.4144 106.651 21.7207 106.37 21.9841C105.135 23.1432 102.231 23.5971 100.135 22.9588C99.5791 22.7895 99.0811 22.5562 98.4923 22.4287C96.6375 22.0269 94.6912 22.7702 92.7641 23.0387C89.6049 23.4788 85.6792 22.7212 83.4017 24.0473C82.6424 24.4894 82.2396 25.0938 81.536 25.565C80.8324 26.0362 79.5627 26.3557 78.6753 26C78.7868 26.8646 78.8883 27.7669 78.3026 28.5668C77.7169 29.3666 76.2147 30.0193 74.7388 29.8177C73.9555 29.6107 74.0173 28.9528 74.3877 28.5075C74.7581 28.0622 75.3263 27.6072 75.1416 27.1256C74.9584 26.6478 74.1199 26.3699 73.4929 26.0369C72.866 25.7038 72.4478 25.0726 73.1137 24.7652C72.6649 24.1888 71.0521 24.2591 70.3426 24.7424C69.6331 25.2258 69.5622 25.9065 69.4849 26.5357C69.4075 27.165 69.2389 27.8544 68.4169 28.2755C67.0159 28.9932 64.3264 28.6208 63.3973 29.5557C63.1022 29.8526 63.0848 30.2109 62.9159 30.5385C62.1622 32.0007 58.9082 32.3793 56.2485 32.4987C56.1924 32.8029 56.18 33.1136 56.2115 33.4213C57.1213 33.0278 55.6052 32.2269 54.9458 32.0249Z" fill="#02FF1B"/>
<path d="M50.7711 44.2356C50.7711 44.2356 41.7713 42.7714 46.3759 35.4504C50.9804 28.1294 52.5292 19.9226 54.5385 18.0891C56.7849 16.0393 103.151 -19.9003 139.272 19.8689C143.099 24.1323 146.21 28.987 148.484 34.2442C148.921 35.2382 149.403 36.1302 149.874 36.6008C151.339 38.065 152.595 42.2485 149.874 44.3402C147.153 46.4319 66.9917 54.5896 50.7711 44.2356Z" fill="#F72585"/>
<path d="M97.0374 24.6881C96.4827 25.0735 95.8288 25.2914 95.1537 25.3156C94.1134 25.3156 93.27 25.0346 93.27 24.6881C93.27 24.3415 94.1134 24.0605 95.1537 24.0605C95.8288 24.0848 96.4827 24.3026 97.0374 24.6881Z" fill="#F2F2F2"/>
<path d="M81.9679 20.7135C81.4133 21.0989 80.7594 21.3167 80.0842 21.341C79.0439 21.341 78.2006 21.06 78.2006 20.7135C78.2006 20.3669 79.0439 20.0859 80.0842 20.0859C80.7594 20.1102 81.4133 20.328 81.9679 20.7135Z" fill="#F2F2F2"/>
<path d="M95.0677 15.837C94.4232 16.0394 93.734 16.0522 93.0825 15.8738C92.0896 15.5634 91.3686 15.0436 91.4722 14.7129C91.5757 14.3821 92.4645 14.3656 93.4574 14.6761C94.0945 14.9006 94.6535 15.3036 95.0677 15.837Z" fill="#F2F2F2"/>
<path d="M125.416 19.6022C124.772 19.8045 124.082 19.8173 123.431 19.639C122.438 19.3286 121.717 18.8088 121.821 18.478C121.924 18.1473 122.813 18.1308 123.806 18.4412C124.443 18.6658 125.002 19.0688 125.416 19.6022Z" fill="#F2F2F2"/>
<path d="M119.223 19.0401C118.668 19.4256 118.014 19.6434 117.339 19.6676C116.299 19.6676 115.456 19.3867 115.456 19.0401C115.456 18.6935 116.299 18.4126 117.339 18.4126C118.014 18.4368 118.668 18.6547 119.223 19.0401Z" fill="#F2F2F2"/>
<path d="M101.223 15.2755C100.669 15.6609 100.015 15.8788 99.3397 15.903C98.2994 15.903 97.4561 15.622 97.4561 15.2755C97.4561 14.9289 98.2994 14.6479 99.3397 14.6479C100.015 14.6722 100.669 14.89 101.223 15.2755Z" fill="#F2F2F2"/>
<path d="M115.037 15.2755C114.482 15.6609 113.828 15.8788 113.153 15.903C112.113 15.903 111.27 15.622 111.27 15.2755C111.27 14.9289 112.113 14.6479 113.153 14.6479C113.828 14.6722 114.482 14.89 115.037 15.2755Z" fill="#F2F2F2"/>
<path d="M109.804 23.4327C109.25 23.8181 108.596 24.036 107.921 24.0602C106.88 24.0602 106.037 23.7793 106.037 23.4327C106.037 23.0861 106.88 22.8052 107.921 22.8052C108.596 22.8294 109.25 23.0472 109.804 23.4327Z" fill="#F2F2F2"/>
<path d="M94.5854 21.9671C94.7425 21.3105 95.0853 20.7128 95.573 20.2456C96.3492 19.5534 97.1657 19.2019 97.3965 19.4605C97.6274 19.7191 97.1853 20.4898 96.409 21.182C95.8891 21.6131 95.2561 21.8857 94.5854 21.9671Z" fill="#F2F2F2"/>
<path d="M85.167 19.6658C85.3241 19.0092 85.6669 18.4116 86.1545 17.9443C86.9308 17.2521 87.7472 16.9006 87.9781 17.1592C88.2089 17.4178 87.7668 18.1886 86.9906 18.8807C86.4707 19.3119 85.8376 19.5844 85.167 19.6658Z" fill="#F2F2F2"/>
<path d="M68.8417 30.9612C68.9988 30.3046 69.3416 29.707 69.8292 29.2397C70.6055 28.5475 71.4219 28.196 71.6528 28.4546C71.8837 28.7132 71.4416 29.484 70.6653 30.1762C70.1454 30.6073 69.5124 30.8798 68.8417 30.9612Z" fill="#F2F2F2"/>
<path d="M105.05 18.411C105.207 17.7543 105.55 17.1567 106.038 16.6894C106.814 15.9972 107.63 15.6457 107.861 15.9043C108.092 16.1629 107.65 16.9337 106.874 17.6259C106.354 18.057 105.721 18.3295 105.05 18.411Z" fill="#F2F2F2"/>
<path d="M101.283 25.9412C101.44 25.2846 101.783 24.6869 102.27 24.2197C103.047 23.5275 103.863 23.176 104.094 23.4346C104.325 23.6932 103.883 24.4639 103.106 25.1561C102.587 25.5873 101.953 25.8598 101.283 25.9412Z" fill="#F2F2F2"/>
<path d="M266.912 64.5153C266.912 65.1278 266.795 65.7112 266.562 66.2654C266.328 66.805 266.007 67.279 265.599 67.6874C265.191 68.0958 264.709 68.4166 264.155 68.65C263.616 68.8833 263.04 69 262.427 69H244.51C243.897 69 243.314 68.8833 242.76 68.65C242.22 68.4166 241.746 68.0958 241.338 67.6874C240.93 67.279 240.609 66.805 240.375 66.2654C240.142 65.7112 240.025 65.1278 240.025 64.5153V42.1136C240.025 41.5011 240.142 40.925 240.375 40.3854C240.609 39.8312 240.93 39.3572 241.338 38.9634C241.746 38.555 242.22 38.2342 242.76 38.0008C243.314 37.7529 243.897 37.6289 244.51 37.6289H262.427C263.04 37.6289 263.616 37.7529 264.155 38.0008C264.709 38.2342 265.191 38.555 265.599 38.9634C266.007 39.3572 266.328 39.8312 266.562 40.3854C266.795 40.925 266.912 41.5011 266.912 42.1136V64.5153ZM244.51 42.1136V64.5153H262.427V42.1136H244.51ZM284.391 69L272.293 37.6289H277.106L286.863 63.4433L296.642 37.6289H301.433L289.335 69H284.391ZM311.277 69H306.793V37.6289H311.277L330.135 61.9557V37.6289H334.62V69H330.135L311.277 44.6732V69ZM347.155 37.6289V69H342.67V37.6289H347.155ZM260.458 96.6363C261.114 96.8405 261.712 97.1322 262.252 97.5113C262.792 97.8905 263.251 98.3791 263.63 98.9771C264.009 99.5605 264.301 100.253 264.505 101.055C264.709 101.858 264.812 102.776 264.812 103.812V105.387C264.812 110.462 262.274 113 257.198 113H240.025V81.6289H256.302C261.377 81.6289 263.915 84.1739 263.915 89.2639V89.8327C263.915 91.5974 263.63 93.0412 263.061 94.1642C262.507 95.2726 261.639 96.0967 260.458 96.6363ZM244.423 99.3271V108.603H257.067C258.249 108.603 259.102 108.326 259.627 107.771C260.152 107.217 260.414 106.35 260.414 105.168V102.74C260.414 101.544 260.152 100.676 259.627 100.137C259.102 99.5969 258.249 99.3271 257.067 99.3271H244.423ZM244.423 86.0261V94.9518H256.477C257.556 94.908 258.329 94.6163 258.795 94.0767C259.277 93.5225 259.517 92.6766 259.517 91.539V89.4826C259.517 88.2867 259.255 87.4116 258.73 86.8574C258.205 86.3032 257.352 86.0261 256.17 86.0261H244.423ZM271.528 81.6289H276.012V108.515H293.929V81.6289H298.414V108.515C298.414 109.128 298.297 109.711 298.064 110.265C297.831 110.805 297.51 111.279 297.101 111.687C296.693 112.096 296.212 112.417 295.658 112.65C295.118 112.883 294.542 113 293.929 113H276.012C275.4 113 274.816 112.883 274.262 112.65C273.723 112.417 273.249 112.096 272.84 111.687C272.432 111.279 272.111 110.805 271.878 110.265C271.644 109.711 271.528 109.128 271.528 108.515V81.6289ZM331.273 92.8297C331.273 97.2051 329.406 99.699 325.672 100.312L331.579 113H326.613L320.794 100.465H310.971V113H306.486V81.6289H323.66C328.735 81.6289 331.273 84.1739 331.273 89.2639V92.8297ZM310.971 95.98H323.419C324.615 95.98 325.475 95.7175 326 95.1924C326.525 94.6674 326.788 93.8069 326.788 92.611V89.4826C326.788 88.2867 326.525 87.4262 326 86.9012C325.475 86.3761 324.615 86.1136 323.419 86.1136H310.971V95.98ZM338.776 86.1136C338.776 85.5011 338.893 84.925 339.126 84.3854C339.36 83.8312 339.681 83.3572 340.089 82.9634C340.497 82.555 340.971 82.2342 341.511 82.0008C342.065 81.7529 342.649 81.6289 343.261 81.6289H360.281C360.894 81.6289 361.47 81.7529 362.009 82.0008C362.564 82.2342 363.045 82.555 363.453 82.9634C363.862 83.3572 364.182 83.8312 364.416 84.3854C364.649 84.925 364.766 85.5011 364.766 86.1136V90.1608H360.281V86.1136H343.261V108.515H360.281V100.902H351.771V96.4175H364.766V108.515C364.766 109.128 364.649 109.711 364.416 110.265C364.182 110.805 363.862 111.279 363.453 111.687C363.045 112.096 362.564 112.417 362.009 112.65C361.47 112.883 360.894 113 360.281 113H343.261C342.649 113 342.065 112.883 341.511 112.65C340.971 112.417 340.497 112.096 340.089 111.687C339.681 111.279 339.36 110.805 339.126 110.265C338.893 109.711 338.776 109.128 338.776 108.515V86.1136ZM372.816 81.6289H377.301V108.515H395.218V81.6289H399.703V108.515C399.703 109.128 399.586 109.711 399.353 110.265C399.119 110.805 398.799 111.279 398.39 111.687C397.982 112.096 397.501 112.417 396.946 112.65C396.407 112.883 395.831 113 395.218 113H377.301C376.689 113 376.105 112.883 375.551 112.65C375.011 112.417 374.537 112.096 374.129 111.687C373.721 111.279 373.4 110.805 373.166 110.265C372.933 109.711 372.816 109.128 372.816 108.515V81.6289ZM407.775 81.6289H430.636V86.1136H412.26V95.083H427.946V99.5678H412.26V108.515H430.636V113H407.775V81.6289ZM462.139 92.8297C462.139 97.2051 460.272 99.699 456.538 100.312L462.445 113H457.479L451.66 100.465H441.837V113H437.352V81.6289H454.526C459.601 81.6289 462.139 84.1739 462.139 89.2639V92.8297ZM441.837 95.98H454.285C455.481 95.98 456.341 95.7175 456.866 95.1924C457.391 94.6674 457.654 93.8069 457.654 92.611V89.4826C457.654 88.2867 457.391 87.4262 456.866 86.9012C456.341 86.3761 455.481 86.1136 454.285 86.1136H441.837V95.98Z" fill="#F72585"/>
</svg>
